<svg width="3035" height="745" viewBox="0 0 3035 745" fill="none" xmlns="http://www.w3.org/2000/svg">
<path fill-rule="evenodd" clip-rule="evenodd" d="M58.6796 583.825L0.820312 616.612L7.73197 630.238C45.8494 705.384 117.89 742 198.001 742C245.904 742 291.701 728.188 325.917 702.25C360.425 676.091 383.001 637.583 383.001 590C383.001 538.918 362.038 505.855 330.22 484.209C299.837 463.538 260.237 453.802 223.916 445.869C219.315 444.864 214.771 443.888 210.293 442.926C177.952 435.978 149.05 429.77 126.918 418.742C114.717 412.662 105.683 405.596 99.6572 397.07C93.768 388.737 90.0012 377.958 90.0012 363C90.0012 339.402 101.633 319.588 120.851 305.175C140.286 290.599 167.074 282 195.001 282C245.092 282 286.593 298.311 311.965 344.68L319.76 358.927L377.732 326.076L369.965 312.19C333.631 247.229 268.68 216 194.001 216C105.61 216 22.0012 273.073 22.0012 363C22.0012 413.677 43.053 446.269 74.9178 467.476C105.291 487.69 144.887 497.098 181.138 504.892C184.914 505.704 188.651 506.499 192.345 507.284L192.355 507.286C225.606 514.354 255.347 520.676 277.942 532.217C290.096 538.426 299.153 545.69 305.224 554.526C311.183 563.198 315.001 574.446 315.001 590C315.001 616.705 302.538 637.579 281.746 652.324C260.541 667.362 230.49 676 197.001 676C140.065 676 94.1275 653.578 66.265 598.751L58.6796 583.825ZM326.001 336.999L356 320C326.32 266.936 275.609 238.139 214.779 232.882C270.187 237.67 317.2 261.989 347.57 306.387C350.169 310.186 352.645 314.131 354.995 318.224C355.333 318.813 355.668 319.405 356.001 320L326.001 336.999C326.001 337 326.001 336.999 326.001 336.999ZM166.372 268.718C116.004 278.387 74 313.218 74 363C74 430.097 138.506 443.916 206.984 458.586C284.45 475.181 367 492.865 367 590C367 646.765 330.923 688.917 279.755 710.283C330.924 688.917 367.001 646.765 367.001 590C367.001 492.865 284.452 475.181 206.986 458.586C138.507 443.916 74.0012 430.097 74.0012 363C74.0012 313.219 116.005 278.388 166.372 268.718ZM197.001 692C193.436 692 189.904 691.917 186.407 691.75C189.904 691.917 193.435 692 197 692C197 692 197.001 692 197.001 692ZM130.305 680.191C97.984 667.335 71.0336 643.453 52 606H52.0012C54.4805 610.879 57.094 615.527 59.8363 619.95C78.1466 649.487 102.194 669.009 130.305 680.191Z" fill="#31322F"/>
<path fill-rule="evenodd" clip-rule="evenodd" d="M498.751 735H565.751V471C565.751 418.095 581.824 369.397 611.056 334.227C640.032 299.366 682.531 277 737.751 277C794.619 277 838.394 299.486 868.192 334.495C898.23 369.787 914.751 418.68 914.751 472V735H981.751V469C981.751 396.676 958.928 332.129 916.458 285.479C873.836 238.663 812.427 211 737.751 211C664.406 211 604.21 239.041 562.52 286.146C521.009 333.048 498.751 397.78 498.751 470V735ZM664.067 275.247C590.314 306.348 549.751 384.498 549.751 471V719H549.75V471C549.75 384.498 590.313 306.347 664.067 275.247ZM715.865 262.128C722.954 261.383 730.251 261 737.751 261C737.751 261 737.75 261 737.75 261C730.25 261 722.954 261.383 715.865 262.128ZM965.75 719H965.751V469C965.751 364.527 915.89 279.541 830.484 244.412C915.889 279.541 965.75 364.528 965.75 469V719Z" fill="#31322F"/>
<path fill-rule="evenodd" clip-rule="evenodd" d="M1145.71 735L1188.37 689.679C1233.28 723.406 1289.35 744 1350.8 744C1499.88 744 1615.8 623.585 1615.8 477C1615.8 412.245 1593.13 352.871 1555.33 306.481L1635.85 221H1554.07L1511.56 264.401C1467.41 230.671 1412.11 211 1350.8 211C1203 211 1083.8 330.122 1083.8 477C1083.8 541.682 1106.43 602.009 1145.97 648.661L1063.34 735H1145.71ZM1535.37 646.198C1575.6 601.483 1599.8 542.016 1599.8 477C1599.8 411 1574.8 351 1533.8 306C1574.8 351 1599.8 411 1599.8 477C1599.8 542.016 1575.6 601.483 1535.37 646.198ZM1191.8 623C1188.17 619.061 1184.69 614.973 1181.37 610.744C1152.67 574.178 1135.8 527.196 1135.8 477C1135.8 419.844 1158.09 367.38 1194.71 328.473C1158.09 367.38 1135.8 419.843 1135.8 477C1135.8 533 1156.8 585 1191.8 623ZM1151.8 477C1151.8 522.781 1166.91 565.548 1192.53 599.022L1464.14 313.652C1432.08 290.452 1392.87 277 1350.8 277C1239.83 277 1151.8 367.643 1151.8 477ZM1548.8 477C1548.8 587.406 1459.72 678 1350.8 678C1307.83 678 1268.43 664.531 1235.62 641.225L1508.06 355.936C1533.72 389.271 1548.8 431.279 1548.8 477Z" fill="#31322F"/>
<path fill-rule="evenodd" clip-rule="evenodd" d="M1784.5 0H1717.5V479C1717.5 626.92 1836.75 745 1984.5 745C2135.63 745 2249.5 624.541 2249.5 479C2249.5 331.542 2134.71 211 1985.5 211C1902.91 211 1831.2 249.109 1784.5 307.816V0ZM1768.5 16V362.997C1768.5 362.998 1768.5 362.999 1768.5 363V16H1768.5ZM2182.5 479C2182.5 588.407 2094.42 679 1984.5 679C1873.53 679 1785.5 588.357 1785.5 479C1785.5 368.498 1873.67 277 1984.5 277C2094.28 277 2182.5 368.449 2182.5 479ZM1984.5 261C1984.5 261 1984.5 261 1984.5 261C1977 261 1969.6 261.387 1962.31 262.141C1969.6 261.387 1977 261 1984.5 261ZM1824.18 333.806C1790.08 372.562 1769.5 423.614 1769.5 479C1769.5 536.157 1791.79 588.62 1828.41 627.527C1791.79 588.62 1769.5 536.156 1769.5 479C1769.5 423.615 1790.08 372.562 1824.18 333.806Z" fill="#31322F"/>
<path d="M3034.97 0H2967.97V735H3034.97V0Z" fill="#31322F"/>
<path fill-rule="evenodd" clip-rule="evenodd" d="M2314.27 477C2314.27 623.711 2431.31 744 2581.27 744C2730.35 744 2846.27 623.585 2846.27 477C2846.27 331.459 2732.4 211 2581.27 211C2433.47 211 2314.27 330.122 2314.27 477ZM2779.27 477C2779.27 587.406 2690.19 678 2581.27 678C2470.34 678 2382.27 587.406 2382.27 477C2382.27 367.643 2470.3 277 2581.27 277C2690.24 277 2779.27 367.643 2779.27 477Z" fill="#31322F"/>
</svg>
