<svg width="541" height="140" viewBox="0 0 541 140" fill="none" xmlns="http://www.w3.org/2000/svg">
<mask id="mask0_834_6" style="mask-type:luminance" maskUnits="userSpaceOnUse" x="0" y="11" width="485" height="129">
<path d="M485 11H0V140H485V11Z" fill="white"/>
</mask>
<g mask="url(#mask0_834_6)">
<path fill-rule="evenodd" clip-rule="evenodd" d="M176.37 11.8516C150.081 11.8516 128.766 33.2024 128.766 59.5725C128.766 85.9052 150.081 107.256 176.37 107.256C202.658 107.256 223.974 85.9052 223.974 59.5725C223.974 33.2024 202.658 11.8516 176.37 11.8516ZM176.37 73.8064C168.517 73.8064 162.122 67.4386 162.122 59.5725C162.122 51.669 168.517 45.3012 176.37 45.3012C184.223 45.3012 190.617 51.669 190.617 59.5725C190.617 67.4386 184.223 73.8064 176.37 73.8064Z" fill="#FBFBEF"/>
<path fill-rule="evenodd" clip-rule="evenodd" d="M219.598 139.506C212.082 123.1 195.553 111.75 176.37 111.75C157.186 111.75 140.657 123.1 133.141 139.506H219.598Z" fill="#FBFBEF"/>
<path d="M230.827 16.4531H227.984L228.831 19.1671L253.101 96.9589L253.559 98.4272H255.098H259.814H261.905H270.193H272.284H274.632H276.143L276.618 96.9933L288.544 60.972L300.469 96.9933L300.944 98.4272H302.455H305.691H307.782H316.07H318.161H321.99H323.528L323.986 96.9589L348.256 19.1671L349.103 16.4531H346.26H323.173H321.538L321.144 18.04L311.435 57.11L300.023 17.9591L299.584 16.4531H298.015H294.482H292.391H284.696H282.605H279.664H278.088L277.654 17.9679L266.431 57.1107L256.533 18.0309L256.133 16.4531H254.506H230.827Z" fill="#FBFBEF" stroke="#FBFBEF" stroke-width="4.18235"/>
<path d="M6.61647 16.4531H3.77344L4.62019 19.1671L28.8907 96.9589L29.3488 98.4272H30.887H35.6034H37.6946H45.9821H48.0732H50.4218H51.9322L52.407 96.9933L64.3329 60.972L76.2589 96.9933L76.7336 98.4272H78.2441H81.4806H83.5717H91.8592H93.9504H97.7789H99.317L99.7751 96.9589L124.045 19.1671L124.892 16.4531H122.049H98.9628H97.3277L96.9333 18.04L87.2246 57.11L75.812 17.9591L75.373 16.4531H73.8043H70.2719H68.1807H60.4852H58.394H55.4535H53.8776L53.4433 17.9679L42.2201 57.1107L32.3222 18.0309L31.9226 16.4531H30.295H6.61647Z" fill="#FBFBEF" stroke="#FBFBEF" stroke-width="4.18235"/>
<path d="M363.171 16.4531H360.328L361.175 19.1671L385.445 96.9589L385.903 98.4272H387.441H392.158H394.249H402.536H404.628H406.976H408.487L408.961 96.9933L420.887 60.972L432.813 96.9933L433.288 98.4272H434.798H438.035H440.126H448.414H450.505H454.333H455.871L456.33 96.9589L480.6 19.1671L481.447 16.4531H478.604H455.517H453.882L453.488 18.04L443.779 57.1101L432.366 17.9591L431.927 16.4531H430.359H426.826H424.735H417.04H414.948H412.008H410.432L409.998 17.9679L398.774 57.1107L388.877 18.0309L388.477 16.4531H386.849H363.171Z" fill="#FBFBEF" stroke="#FBFBEF" stroke-width="4.18235"/>
</g>
<path d="M492.812 18.9524V14.1797H511.776V18.9524H505.212V35.9979H499.375V18.9524H492.812ZM514.005 14.1797H521.377L526.448 26.5377H526.703L531.774 14.1797H539.146V35.9979H533.352V23.3843H533.18L528.323 35.8274H524.828L519.971 23.299H519.799V35.9979H514.005V14.1797Z" fill="#FBFBEF"/>
</svg>
