<svg width="1708" height="1354" viewBox="0 0 1708 1354" fill="none" xmlns="http://www.w3.org/2000/svg">
<path d="M49.2834 0.0733479C258.843 0.0733479 468.403 0.0733479 684.313 0.0733479C684.313 66.7195 684.313 133.366 684.313 202.031C684.313 311.517 673.406 340.501 718.938 404.98C740.221 425.507 768.566 434.344 797.615 434.05C822.195 433.49 845.722 424.675 864.48 408.836C865.136 408.299 865.792 407.762 866.468 407.208C887.418 389.367 898.453 362.04 901.645 335.324C901.849 333.846 901.849 333.846 902.056 332.339C902.448 329.192 902.558 326.104 902.565 322.931C902.567 322.368 902.569 321.806 902.572 321.226C902.578 319.351 902.579 317.477 902.58 315.602C902.584 314.24 902.588 312.878 902.593 311.517C902.604 307.782 902.609 304.048 902.615 300.314C902.621 296.284 902.632 292.255 902.643 288.225C902.66 281.246 902.675 274.267 902.688 267.288C902.706 257.197 902.729 247.106 902.753 237.016C902.791 220.644 902.826 204.272 902.859 187.9C902.891 171.997 902.924 156.094 902.96 140.192C902.962 139.211 902.964 138.231 902.966 137.221C902.977 132.302 902.989 127.384 903 122.466C903.092 81.6682 903.178 40.8708 903.261 0.0733479C927.808 0.0545267 952.356 0.0404289 976.904 0.0320957C979.865 0.0310864 982.827 0.0300407 985.789 0.0289723C986.673 0.0286545 986.673 0.0286545 987.574 0.0283302C995.725 0.0253237 1003.88 0.020389 1012.03 0.013782C1060.65 -0.0255949 1109.27 -0.00455153 1157.89 0.40441C1160.91 0.429604 1163.93 0.453755 1166.95 0.477743C1171.66 0.515689 1176.36 0.557597 1181.07 0.602752C1182.77 0.618729 1184.47 0.63377 1186.17 0.647712C1201.85 0.779154 1217.53 1.19691 1233.15 2.6988C1233.68 2.74927 1234.21 2.79973 1234.75 2.85173C1268.76 6.12902 1302.96 12.214 1335.5 22.6926C1336 22.852 1336.49 23.0113 1337.01 23.1755C1362.2 31.2633 1386.79 40.2123 1410.64 51.7746C1411.62 52.2492 1412.61 52.7237 1413.59 53.1982C1427.52 59.9343 1441.03 67.1607 1454.27 75.2017C1455.01 75.6538 1455.76 76.1059 1456.53 76.5717C1465.96 82.2744 1475.18 88.2087 1484.16 94.5897C1484.75 95.0062 1485.34 95.4228 1485.94 95.8519C1494.14 101.673 1502.18 107.664 1510.01 113.978C1510.77 114.59 1511.53 115.202 1512.32 115.833C1514.52 117.625 1516.71 119.432 1518.9 121.248C1519.31 121.589 1519.72 121.931 1520.15 122.282C1526.16 127.288 1532 132.444 1537.73 137.772C1538.75 138.704 1539.78 139.624 1540.81 140.539C1546.22 145.328 1551.36 150.345 1556.45 155.458C1557.84 156.847 1559.22 158.231 1560.61 159.615C1565.2 164.195 1569.63 168.824 1573.84 173.757C1575.15 175.192 1576.46 176.623 1577.78 178.049C1581.04 181.631 1584.16 185.294 1587.2 189.065C1588.65 190.861 1590.11 192.646 1591.58 194.423C1639.96 252.997 1674.28 323.156 1692.6 396.719C1692.89 397.866 1692.89 397.866 1693.18 399.037C1694.39 403.908 1695.54 408.789 1696.64 413.683C1696.81 414.429 1696.98 415.174 1697.15 415.942C1701.57 435.709 1704.32 455.742 1706.34 475.886C1706.42 476.739 1706.51 477.592 1706.6 478.471C1707.69 489.852 1708.05 501.122 1708 512.545C1707.99 513.855 1707.99 515.166 1707.99 516.476C1707.98 519.642 1707.97 522.807 1707.95 525.972C1696.69 525.998 1685.43 526.014 1674.17 526.023C1673.29 526.023 1672.41 526.024 1671.5 526.025C1633.31 526.051 1595.12 525.827 1556.92 525.568C1556.21 525.563 1555.5 525.558 1554.76 525.554C1536.34 525.429 1517.93 525.299 1499.51 525.164C1499.26 526.076 1499.26 526.076 1499.01 527.007C1498.8 527.805 1498.58 528.604 1498.36 529.427C1498.14 530.218 1497.93 531.009 1497.71 531.825C1496.98 534.411 1496.14 536.93 1495.22 539.453C1494.87 540.405 1494.52 541.358 1494.16 542.34C1493.8 543.336 1493.43 544.333 1493.05 545.36C1492.85 545.883 1492.66 546.406 1492.46 546.945C1483.2 572.031 1472.5 596.481 1460.73 620.488C1460.31 621.356 1459.88 622.224 1459.45 623.118C1453.3 635.699 1446.78 647.981 1439.72 660.072C1439.22 660.944 1438.71 661.816 1438.19 662.714C1412.94 705.992 1383.76 747.177 1350.04 784.311C1348.62 785.881 1347.23 787.47 1345.85 789.073C1336.95 799.253 1327.42 808.846 1317.85 818.393C1315.79 820.444 1313.74 822.499 1311.69 824.554C1310.36 825.88 1309.04 827.205 1307.71 828.53C1306.81 829.437 1306.81 829.437 1305.88 830.362C1302.6 833.633 1299.24 836.773 1295.72 839.794C1293.49 841.725 1291.35 843.754 1289.2 845.773C1285.32 849.376 1281.35 852.791 1277.22 856.104C1274.57 858.265 1271.99 860.497 1269.4 862.737C1264.34 867.107 1259.13 871.269 1253.84 875.362C1252.16 876.667 1250.49 877.983 1248.82 879.301C1241.27 885.243 1233.59 890.917 1225.7 896.393C1224.01 897.571 1222.34 898.765 1220.66 899.964C1161.41 942.357 1094.95 974.701 987.876 1008.8C985.38 1009.49 982.89 1010.19 980.403 1010.91C971.375 1013.49 962.286 1015.6 953.099 1017.54C952.368 1017.69 951.636 1017.85 950.882 1018.01C935.644 1021.25 920.37 1024.3 904.876 1026.02C904.876 1134.25 904.876 1242.49 904.876 1354C606.267 1354 307.658 1354 0 1354C0 1265.05 17.2955 1178.16 163.201 929.08C163.741 928.474 164.282 927.868 164.839 927.244C186.743 902.691 186.743 902.691 198.92 892.381C200.554 890.947 202.072 889.43 203.597 887.881C206.696 884.747 209.941 881.856 213.292 878.995C214.144 878.263 214.995 877.531 215.845 876.798C218.275 874.709 220.709 872.627 223.146 870.546C224.532 869.361 225.915 868.173 227.298 866.984C232.736 862.326 238.3 857.872 244.012 853.552C245.85 852.153 247.677 850.74 249.504 849.326C257.221 843.373 265.005 837.605 273.117 832.199C273.715 831.8 274.312 831.4 274.928 830.989C275.712 830.471 275.712 830.471 276.511 829.943C277.942 828.898 279.113 827.749 280.35 826.486C280.019 826.156 279.687 825.826 279.345 825.486C275.869 822.029 272.396 818.568 268.925 815.106C267.632 813.817 266.338 812.529 265.043 811.242C263.174 809.383 261.308 807.521 259.442 805.659C258.87 805.091 258.299 804.524 257.71 803.939C254.497 800.728 251.428 797.439 248.468 793.992C246.533 791.757 244.501 789.613 242.479 787.457C238.892 783.603 235.497 779.646 232.2 775.539C229.895 772.725 227.505 769.996 225.108 767.261C220.579 762.073 216.277 756.748 212.072 751.295C210.751 749.59 209.419 747.893 208.085 746.198C202.717 739.361 197.483 732.464 192.498 725.343C191.415 723.801 190.321 722.268 189.225 720.735C146.435 660.781 112.266 594.479 84.7959 512.229C83.9293 509.56 83.0522 506.896 82.1453 504.241C79.9241 497.728 78.0145 491.197 76.3489 484.52C74.2718 476.305 74.2718 476.305 71.9746 468.151C67.1879 451.919 64.3993 434.951 61.3171 418.325C60.8393 415.754 60.3303 413.192 59.7959 410.632C55.9472 391.921 54.2202 372.807 52.4755 353.802C52.3855 352.824 52.2955 351.847 52.2027 350.84C52.0876 349.559 52.0876 349.559 51.9702 348.252C51.7061 345.815 51.3022 343.396 50.8993 340.978C44.926 227.499 49.2834 113.71 49.2834 0.0733479Z" fill="#3C3C3C"/>
</svg>
